<svg width="90" height="70" viewBox="0 0 90 70" fill="none" xmlns="http://www.w3.org/2000/svg">
<mask id="mask0_31:3" style="mask-type:alpha" maskUnits="userSpaceOnUse" x="0" y="0" width="90" height="70">
<path d="M58.0107 8.96262C56.8616 9.63904 55.2561 10.7948 54.6714 11.1362C53.1987 11.9941 51.8996 13.1065 50.4457 13.9939C48.2523 15.3296 45.0694 16.0464 42.5587 15.3234C39.8713 14.5493 37.7514 12.5169 35.3845 11.1362C34.7998 10.7948 33.1927 9.63904 32.0452 8.96262C30.027 7.77579 28.7888 9.80039 30.1427 10.9221C31.0306 11.6574 32.5674 13.0878 33.7086 14.1366C45.9714 25.403 43.8562 43.7609 45.0287 43.2939C46.1997 43.7609 44.086 25.403 56.3457 14.1366C57.4885 13.0878 59.0237 11.6574 59.9132 10.9221C61.2671 9.80039 60.0274 7.77579 58.0107 8.96262Z" fill="#586E75"/>
<path d="M45.3257 14.2515C41.4033 14.4144 38.0891 11.3938 37.9249 7.50441C37.7608 3.61501 40.8061 0.329102 44.7301 0.166203C48.6525 0.00330403 51.9652 3.02391 52.1294 6.91332C52.2951 10.8027 49.2466 14.0886 45.3257 14.2515Z" fill="#586E75"/>
<path d="M9.28934 31.5279C9.96939 32.6651 11.1356 34.2584 11.4796 34.8387C12.3457 36.297 13.4681 37.5862 14.3608 39.0291C15.71 41.2026 16.4322 44.3597 15.7021 46.8482C14.9205 49.5135 12.8725 51.6142 11.4796 53.963C11.1356 54.5432 9.96939 56.135 9.28934 57.2737C8.09027 59.2751 10.1335 60.5007 11.2623 59.1603C12.0064 58.2791 13.4478 56.7556 14.5062 55.623C25.8685 43.4661 44.3831 45.5621 43.9109 44.4016C44.3831 43.2396 25.8685 45.3356 14.5062 33.1787C13.4478 32.0461 12.0064 30.5226 11.2623 29.6414C10.1335 28.2979 8.09027 29.5266 9.28934 31.5279Z" fill="#A66638"/>
<path d="M14.6218 44.1055C14.786 47.9949 11.739 51.2808 7.81664 51.4437C3.89424 51.6066 0.579968 48.586 0.415818 44.6966C0.251668 40.8071 3.29861 37.5212 7.21945 37.3583C11.1434 37.1954 14.4577 40.2161 14.6218 44.1055Z" fill="#A66638"/>
<path d="M80.7666 57.2738C80.0849 56.1351 78.9187 54.5417 78.5748 53.9631C77.7087 52.5032 76.5878 51.214 75.6935 49.7727C74.3459 47.5991 73.6237 44.4436 74.3522 41.952C75.1339 39.2866 77.1818 37.1876 78.5748 34.8387C78.9187 34.2585 80.0849 32.6652 80.7666 31.528C81.9641 29.5267 79.9224 28.2995 78.7921 29.6415C78.0495 30.5227 76.6065 32.0462 75.5497 33.1787C64.1858 45.3356 45.6713 43.2397 46.145 44.4001C45.6713 45.5621 64.1858 43.4662 75.5497 55.6231C76.6065 56.7556 78.0495 58.2791 78.7921 59.1603C79.9224 60.5023 81.9641 59.2751 80.7666 57.2738Z" fill="#A66638"/>
<path d="M75.4324 44.6966C75.2698 40.8071 78.3152 37.5212 82.2391 37.3583C86.1615 37.1954 89.4742 40.2161 89.6384 44.1055C89.8025 47.9949 86.7556 51.2808 82.8347 51.4437C78.9123 51.6066 75.5965 48.586 75.4324 44.6966Z" fill="#A66638"/>
<path d="M28.9357 10.2392C28.6074 11.5222 28.2948 13.4661 28.1259 14.1177C27.696 15.756 27.5694 17.4548 27.1739 19.0993C26.5767 21.5831 24.8367 24.3214 22.5464 25.5703C20.092 26.9076 17.1466 26.9557 14.4874 27.6399C13.8308 27.809 11.8688 28.1177 10.576 28.445C8.30287 29.0191 8.87036 31.3183 10.626 31.1647C11.7813 31.0607 13.8871 30.994 15.4411 30.9351C32.1468 30.3067 43.7436 44.7691 44.2377 43.6179C45.4008 43.1277 30.8133 31.627 31.448 15.0656C31.5074 13.5235 31.5747 11.4353 31.6778 10.2904C31.8357 8.54811 29.5157 7.98495 28.9357 10.2392Z" fill="#3C4D52"/>
<path d="M23.7377 22.874C21.08 25.738 16.5839 25.9257 13.6933 23.2914C10.8027 20.6555 10.6151 16.1967 13.2728 13.3297C15.9289 10.4658 20.4266 10.2781 23.3156 12.9124C26.2062 15.5482 26.3954 20.007 23.7377 22.874Z" fill="#3C4D52"/>
<path d="M79.4783 28.4452C78.1855 28.1179 76.225 27.8091 75.5684 27.64C73.916 27.2165 72.2026 27.0908 70.5423 26.6968C68.0394 26.1057 65.277 24.3805 64.017 22.1077C62.6694 19.6766 62.6209 16.7537 61.9299 14.1179C61.7595 13.4663 61.4484 11.5223 61.1185 10.2393C60.5401 7.9851 58.2201 8.54827 58.378 10.289C58.4796 11.4355 58.5469 13.5237 58.6063 15.0658C59.241 31.6272 44.6551 43.1278 45.8166 43.6181C46.3122 44.7692 57.909 30.3069 74.6117 30.9352C76.1672 30.9942 78.273 31.0609 79.4283 31.1633C81.1839 31.3184 81.753 29.0192 79.4783 28.4452Z" fill="#3C4D52"/>
<path d="M66.7372 23.2914C63.8481 20.6555 63.659 16.1967 66.3166 13.3297C68.9743 10.4658 73.4705 10.2781 76.3626 12.9124C79.2517 15.5467 79.4393 20.007 76.7832 22.874C74.1255 25.738 69.6278 25.9257 66.7372 23.2914Z" fill="#3C4D52"/>
</mask>
<g mask="url(#mask0_31:3)">
<rect y="-8" width="90" height="90" fill="white"/>
</g>
</svg>
